<?xml version="1.0" encoding="UTF-8"?>
<svg width="700pt" height="700pt" version="1.1" viewBox="0 0 600 500" xmlns="http://www.w3.org/2000/svg"
    xmlns:xlink="http://www.w3.org/1999/xlink">
    <g>
        <path
            d="m594.16 390.88s-63.84 73.922-82.879 91.281l-3.3594 2.8008-1.6797 1.1211-1.6836 1.1172-1.6797 1.1211-1.1211 0.55859-1.6797 0.55859h-1.1211c-1.1211 0-8.9609 0.55859-9.5195 0.55859 10.078-50.398-0.55859-96.879-7.2812-117.6-0.55859-1.6797-1.1211-3.3594-1.6797-5.0391-2.8008-6.7188-6.1602-13.441-10.078-19.602l-0.55859-0.55859c-3.3594-5.0391-7.2812-10.078-11.762-14-18.48-12.879-38.078-33.602-48.16-58.238-0.55859 2.2383-1.6797 3.9219-3.3594 4.4805-3.9219 1.6797-10.641-5.6016-14-16.238-3.3594-10.078-2.8008-19.602 1.1211-21.281 2.2383-0.55859 5.0391 1.1211 7.8398 4.4805-2.2383-11.199-17.922-90.16 30.801-132.72 29.68-25.762 65.52-27.441 71.68-38.078 12.32-20.719 19.602 17.922 19.602 17.922s3.3594 1.1211 16.238-5.6016c15.121-7.2812 17.922 35.281 17.922 35.281s33.602 42.559 24.078 124.32c3.3594-4.4805 7.2812-6.7188 9.5195-5.6016 3.9219 1.6797 3.9219 11.199-0.55859 21.281-4.4805 10.078-11.199 16.801-15.121 15.121l-1.6797-1.6797-0.55859 1.1211-1.1211 2.8008-1.1211 2.2383-1.6797 2.7969-1.1211 2.2383-1.6797 2.2383-1.1211 2.2383-1.6797 2.2383-1.1172 2.2461-1.6797 2.2383-1.6797 1.6797-5.0391 6.7148-1.6797 1.6797-1.1211 1.6875-3.3594 3.3594-2.2422 2.8008-6.7188 6.7188-2.2422 1.1211-2.2383 1.6797-1.6797 1.1211-2.2383 1.6797-0.5625 1.1172-0.55859 0.55859c105.84 26.324 64.398 59.922 64.398 59.922z" />
        <path
            d="m339.36 253.12c-0.55859 21.281-7.8398 41.441-7.8398 57.121-2.8008 0-6.1602 0.55859-9.5195 0.55859-21.281 0-40.879 8.9609-56 23.52-1.6797 1.6797-3.3594 3.9219-5.0391 5.6016l-0.55859 0.55859s-0.55859 0.55859-0.55859 1.1211c-0.55859 0.55859-1.1211 1.6797-2.2383 2.8008-4.4805 6.7188-8.3984 14-11.199 21.281 0 0.55859-0.55859 1.1211-0.55859 1.6797-8.9609 24.078-16.801 63.84-5.6016 122.64-6.1602 0-12.32-2.8008-17.359-8.3984-21.281-21.281-58.801-63.84-82.32-89.039-8.9609-9.5195-4.4805-19.039 5.0391-26.879l-11.762 1.1211c-19.602-14-10.078-19.602-10.078-19.602 6.7188-6.1602 0 0-15.121-8.9609-8.3984-5.0391-11.199-17.359-11.199-18.48 1.6797 0.55859 23.52 6.7188 34.719-1.6797 13.441-10.078 25.762-16.801 11.199-39.199-14.559-22.398-28-82.879-10.641-113.12 17.922-31.359 30.238-38.078 46.48-47.602 36.398-21.281 111.44-18.48 114.24 16.238 0 0 8.3984-7.2812 17.922 0 33.035 24.078 29.117 87.918 27.996 118.72z" />
        <path
            d="m449.68 355.6s-2.2383-3.9219-5.0391-6.1602c-4.4805-4.4805-14-10.078-30.801-10.078 0 0-9.5195 5.0391-12.32 6.7188-2.8008 1.6797-8.9609 5.0391-15.121 5.0391h-21.281s-14.559-0.55859-21.281-0.55859c-6.1602 0-27.441-12.879-27.441-12.879-16.238-3.9219-25.762 3.9219-30.238 8.3984-2.8008 2.8008-3.9219 5.0391-3.9219 5.0391-10.641 17.359-25.199 66.641-24.641 100.8 0.55859 20.719 5.6016 29.68 9.5195 33.602 2.8008 2.8008 5.6016 3.3594 5.6016 3.3594 6.1602 1.6797 14.559-1.1211 20.719-5.0391 6.1602-3.3594 10.078-7.2812 10.078-7.2812 0.55859-0.55859 9.5195-9.5195 21.281-17.359 5.6016-3.9219 24.078-6.1602 39.762-6.1602 15.121 0 33.039 1.6797 41.441 7.2812 11.762 7.2812 20.719 15.68 21.281 16.801 0 0 16.801 13.441 24.641 11.762 0 0 5.6016-0.55859 8.3984-3.3594 3.9219-3.9219 10.641-11.199 10.641-31.359 1.1211-34.727-10.637-82.887-21.277-98.566zm-149.52 35.277c-7.2812 0-12.879-5.6016-12.879-12.879 0-7.2812 5.6016-12.879 12.879-12.879 7.2812 0 12.879 5.6016 12.879 12.879 0 7.2812-5.5977 12.879-12.879 12.879zm48.719 33.043c-1.1211-0.55859-1.6797-0.55859-2.8008-0.55859-4.4805 0-7.8398 3.3594-7.8398 7.8398 0 1.1211 0 1.6797 0.55859 2.8008-2.2383 1.1211-4.4805 1.1211-6.7188 1.1211-2.8008 0-5.6016-0.55859-7.8398-1.6797 0-0.55859 0.55859-1.6797 0.55859-2.2383 0-4.4805-3.3594-7.8398-7.8398-7.8398h-1.6797c-0.55859-1.6797-1.1211-3.9219-1.1211-6.1602s0.55859-4.4805 1.1211-6.1602h1.6797c4.4805 0 7.8398-3.3594 7.8398-7.8398 0-0.55859 0-1.6797-0.55859-2.2383 2.2383-1.1211 5.0391-1.6797 7.8398-1.6797 2.2383 0 4.4805 0.55859 6.7188 1.1211-0.55859 1.1211-0.55859 1.6797-0.55859 2.8008 0 4.4805 3.3594 7.8398 7.8398 7.8398 1.1211 0 1.6797 0 2.8008-0.55859 0.55859 2.2383 1.1211 4.4805 1.1211 6.7188 0.55859 2.2305 0 4.4688-1.1211 6.7109zm16.801-73.363v0.55859zm30.801 78.961c-7.2812 0-12.879-5.6016-12.879-12.879 0-7.2812 5.6016-12.879 12.879-12.879 7.2812 0 12.879 5.6016 12.879 12.879 0 7.2812-5.5977 12.879-12.879 12.879zm16.801-43.121c-3.9219 0-7.2812-3.3594-7.2812-7.2812 0-3.9219 3.3594-7.2812 7.2812-7.2812s7.2812 3.3594 7.2812 7.2812c0.55859 3.9219-2.8008 7.2812-7.2812 7.2812zm16.797 16.801c-3.9219 0-7.2812-3.3594-7.2812-7.2812s3.3594-7.2812 7.2812-7.2812 7.2812 3.3594 7.2812 7.2812-3.3594 7.2812-7.2812 7.2812zm0-33.039c-3.9219 0-7.2812-3.3594-7.2812-7.2812s3.3594-7.2812 7.2812-7.2812 7.2812 3.3594 7.2812 7.2812-3.3594 7.2812-7.2812 7.2812zm16.801 16.801c-3.9219 0-7.2812-3.3594-7.2812-7.2812 0-3.9219 3.3594-7.2812 7.2812-7.2812s7.2812 3.3594 7.2812 7.2812c0 3.9219-3.3594 6.7188-7.2812 7.2812z" />
    </g>
</svg>